# xmcd
#
# Track frame offsets: 
#        150
#        3245
#        19650
#        40500
#        54000
#        77779
#        100050
#        122775
#        162000
#
# Disc length: 2480 seconds
#
# Revision: 0
# Processed by: cddbd v1.5.2PL0 Copyright (c) Steve Scherf et al.
# Submitted via: ExactAudioCopy v0.95b4
#
DISCID=5509ae09
DTITLE=Deviant Syndrome - Inflicted Deviations
DYEAR=2010
DGENRE=Melodic Death Metal
TTITLE0=Harbingers Of Extinction
TTITLE1=Blessing The Emptiness
TTITLE2=Entire Cosmic Elements
TTITLE3=Seal Of A Star Dweller
TTITLE4=The Wicked
TTITLE5=A Day To Fall
TTITLE6=Consequence
TTITLE7=Liberation
TTITLE8=Drowned In The Frozen Sun
EXTD=
EXTT0=
EXTT1=
EXTT2=
EXTT3=
EXTT4=
EXTT5=
EXTT6=
EXTT7=
EXTT8=
PLAYORDER=
